<svg width="102" height="102" viewBox="0 0 102 102" fill="none" xmlns="http://www.w3.org/2000/svg">
<circle cx="50.8333" cy="51.2087" r="50.5" fill="white"/>
<circle cx="50.8333" cy="51.2087" r="49.8" stroke="#191919" stroke-opacity="0.1" stroke-width="1.4"/>
<path d="M58.7968 29.3503L53.3167 34.8304C52.4913 35.6558 51.6185 36.741 51.3333 37.7922C51.0482 36.741 50.5805 35.6558 49.7551 34.8305L44.2751 29.3504C41.7529 26.8282 37.6637 26.8282 35.1416 29.3504C32.8666 31.6254 32.7354 35.2672 34.5646 37.7921L51.3333 37.7922L31.9583 37.7921C28.3915 37.7921 25.5 40.6836 25.5 44.2504C25.5 46.0106 26.2042 47.6064 27.3462 48.7713H51.3208L51.3333 48.7712L51.3458 48.7713H75.3205C76.4625 47.6064 77.1667 46.0106 77.1667 44.2504C77.1667 40.6836 74.2752 37.7921 70.7083 37.7921L67.9303 37.7921L68.599 37.7921C70.4282 35.2672 70.2052 31.6253 67.9302 29.3503C65.4081 26.8282 61.3189 26.8282 58.7968 29.3503Z" fill="#232222"/>
<path d="M28.0344 52.8674L28.0264 52.5544H49.3958V76.4503H47.4583C41.4399 76.4503 38.4307 76.4503 36.057 75.4202C32.8921 74.0468 30.3775 71.4126 29.0666 68.0969C28.0834 65.6104 28.0834 62.4566 28.0834 56.1527C28.0834 54.7709 28.0567 53.7348 28.0344 52.8674Z" fill="#232222"/>
<path d="M66.6097 75.4202C64.236 76.4503 61.2267 76.4503 55.2083 76.4503H53.2708V52.5544H74.5687C74.5833 53.4849 74.5833 54.6008 74.5833 56.1526C74.5833 62.4577 74.5833 65.6102 73.6001 68.0969C72.2892 71.4126 69.7746 74.0468 66.6097 75.4202Z" fill="#232222"/>
</svg>
