<svg width="102" height="102" viewBox="0 0 102 102" fill="none" xmlns="http://www.w3.org/2000/svg">
<circle cx="51.1667" cy="51.2087" r="50.5" fill="white"/>
<circle cx="51.1667" cy="51.2087" r="49.8" stroke="#191919" stroke-opacity="0.1" stroke-width="1.4"/>
<path d="M59.1303 29.3503L53.6502 34.8304C52.8248 35.6558 51.952 36.741 51.6668 37.7922C51.3817 36.741 50.914 35.6558 50.0886 34.8305L44.6086 29.3504C42.0864 26.8282 37.9972 26.8282 35.4751 29.3504C33.2001 31.6254 33.0689 35.2672 34.8981 37.7921L51.6668 37.7922L32.2918 37.7921C28.725 37.7921 25.8335 40.6836 25.8335 44.2504C25.8335 46.0106 26.5377 47.6064 27.6797 48.7713H51.6543L51.6668 48.7712L51.6793 48.7713H75.654C76.796 47.6064 77.5002 46.0106 77.5002 44.2504C77.5002 40.6836 74.6087 37.7921 71.0418 37.7921L68.2638 37.7921L68.9325 37.7921C70.7617 35.2672 70.5387 31.6253 68.2637 29.3503C65.7416 26.8282 61.6524 26.8282 59.1303 29.3503Z" fill="#232222"/>
<path d="M28.3679 52.8674L28.3599 52.5544H49.7293V76.4503H47.7918C41.7734 76.4503 38.7642 76.4503 36.3905 75.4202C33.2256 74.0468 30.711 71.4126 29.4001 68.0969C28.4169 65.6104 28.4169 62.4566 28.4169 56.1527C28.4169 54.7709 28.3902 53.7348 28.3679 52.8674Z" fill="#232222"/>
<path d="M66.9432 75.4202C64.5695 76.4503 61.5602 76.4503 55.5418 76.4503H53.6043V52.5544H74.9022C74.9168 53.4849 74.9168 54.6008 74.9168 56.1526C74.9168 62.4577 74.9168 65.6102 73.9336 68.0969C72.6227 71.4126 70.1081 74.0468 66.9432 75.4202Z" fill="#232222"/>
</svg>
