<svg width="200" height="93" viewBox="0 0 200 93" fill="none" xmlns="http://www.w3.org/2000/svg">
<circle cx="45.3059" cy="47.3291" r="45.3059" fill="#E6E6E6"/>
<path d="M58.1318 48.4287C58.7393 48.4287 59.2318 47.9363 59.2318 47.3287C59.2318 46.7212 58.7393 46.2287 58.1318 46.2287L58.1318 48.4287ZM32.4792 46.2287C31.8717 46.2287 31.3792 46.7212 31.3792 47.3287C31.3792 47.9363 31.8717 48.4287 32.4792 48.4287L32.4792 46.2287ZM38.118 56.1265C38.5495 56.5541 39.246 56.551 39.6736 56.1195C40.1013 55.688 40.0982 54.9916 39.6667 54.5639L38.118 56.1265ZM36.0658 52.5438L36.8401 51.7625L36.0658 52.5438ZM36.0658 42.1137L36.8401 42.895L36.0658 42.1137ZM39.6667 40.0936C40.0982 39.6659 40.1013 38.9694 39.6736 38.5379C39.246 38.1065 38.5495 38.1033 38.118 38.531L39.6667 40.0936ZM32.5111 47.8311L31.4199 47.9702L31.4199 47.9702L32.5111 47.8311ZM32.5111 46.8264L31.4199 46.6873L31.4199 46.6873L32.5111 46.8264ZM58.1318 46.2287L32.4792 46.2287L32.4792 48.4287L58.1318 48.4287L58.1318 46.2287ZM39.6667 54.5639L36.8401 51.7625L35.2915 53.325L38.118 56.1265L39.6667 54.5639ZM36.8401 42.895L39.6667 40.0936L38.118 38.531L35.2915 41.3324L36.8401 42.895ZM36.8401 51.7625C35.6947 50.6272 34.9028 49.84 34.3659 49.1714C33.8429 48.5202 33.6528 48.0889 33.6022 47.692L31.4199 47.9702C31.5428 48.9348 32.0031 49.7428 32.6506 50.549C33.284 51.3378 34.1828 52.2262 35.2915 53.325L36.8401 51.7625ZM35.2915 41.3324C34.1828 42.4313 33.284 43.3197 32.6506 44.1085C32.0031 44.9147 31.5428 45.7227 31.4199 46.6873L33.6022 46.9655C33.6528 46.5685 33.8429 46.1373 34.3659 45.4861C34.9028 44.8175 35.6947 44.0303 36.8401 42.895L35.2915 41.3324ZM33.6022 47.692C33.5715 47.4508 33.5715 47.2067 33.6022 46.9655L31.4199 46.6873C31.3656 47.1132 31.3656 47.5443 31.4199 47.9702L33.6022 47.692Z" fill="#373737"/>
<circle cx="154.694" cy="46.0883" r="45.3059" transform="rotate(180 154.694 46.0883)" fill="#E3B748"/>
<path d="M142.951 44.9888C142.344 44.9888 141.851 45.4813 141.851 46.0888C141.851 46.6963 142.344 47.1888 142.951 47.1888L142.951 44.9888ZM168.604 47.1888C169.211 47.1888 169.704 46.6963 169.704 46.0888C169.704 45.4813 169.211 44.9888 168.604 44.9888L168.604 47.1888ZM162.965 37.291C162.534 36.8634 161.837 36.8665 161.409 37.298C160.982 37.7295 160.985 38.4259 161.416 38.8536L162.965 37.291ZM165.017 40.8738L164.243 41.655L165.017 40.8738ZM165.017 51.3038L164.243 50.5225L165.017 51.3038ZM161.416 53.3239C160.985 53.7516 160.982 54.4481 161.409 54.8796C161.837 55.3111 162.534 55.3142 162.965 54.8865L161.416 53.3239ZM168.572 45.5864L169.663 45.4473L169.663 45.4473L168.572 45.5864ZM168.572 46.5911L169.663 46.7302L169.663 46.7302L168.572 46.5911ZM142.951 47.1888L168.604 47.1888L168.604 44.9888L142.951 44.9888L142.951 47.1888ZM161.416 38.8536L164.243 41.655L165.792 40.0925L162.965 37.291L161.416 38.8536ZM164.243 50.5225L161.416 53.3239L162.965 54.8865L165.792 52.0851L164.243 50.5225ZM164.243 41.655C165.388 42.7903 166.18 43.5775 166.717 44.2461C167.24 44.8973 167.43 45.3286 167.481 45.7255L169.663 45.4473C169.54 44.4827 169.08 43.6747 168.432 42.8685C167.799 42.0797 166.9 41.1913 165.792 40.0925L164.243 41.655ZM165.792 52.0851C166.9 50.9862 167.799 50.0978 168.432 49.309C169.08 48.5028 169.54 47.6948 169.663 46.7302L167.481 46.4521C167.43 46.849 167.24 47.2802 166.717 47.9315C166.18 48.6001 165.388 49.3872 164.243 50.5225L165.792 52.0851ZM167.481 45.7255C167.512 45.9667 167.512 46.2108 167.481 46.4521L169.663 46.7302C169.717 46.3043 169.717 45.8733 169.663 45.4473L167.481 45.7255Z" fill="black"/>
</svg>
