<svg width="101" height="102" viewBox="0 0 101 102" fill="none" xmlns="http://www.w3.org/2000/svg">
<circle cx="50.5" cy="51.2087" r="50.5" fill="white"/>
<circle cx="50.5" cy="51.2087" r="49.8" stroke="#191919" stroke-opacity="0.1" stroke-width="1.4"/>
<path d="M58.4634 29.3503L52.9833 34.8304C52.1579 35.6558 51.2851 36.741 51 37.7922C50.7148 36.741 50.2472 35.6558 49.4218 34.8305L43.9417 29.3504C41.4196 26.8282 37.3304 26.8282 34.8082 29.3504C32.5332 31.6254 32.4021 35.2672 34.2312 37.7921L51 37.7922L31.625 37.7921C28.0581 37.7921 25.1666 40.6836 25.1666 44.2504C25.1666 46.0106 25.8708 47.6064 27.0128 48.7713H50.9875L51 48.7712L51.0124 48.7713H74.9871C76.1291 47.6064 76.8333 46.0106 76.8333 44.2504C76.8333 40.6836 73.9418 37.7921 70.375 37.7921L67.5969 37.7921L68.2656 37.7921C70.0948 35.2672 69.8719 31.6253 67.5969 29.3503C65.0747 26.8282 60.9855 26.8282 58.4634 29.3503Z" fill="#232222"/>
<path d="M27.701 52.8674L27.693 52.5544H49.0625V76.4503H47.1249C41.1065 76.4503 38.0973 76.4503 35.7236 75.4202C32.5587 74.0468 30.0442 71.4126 28.7332 68.0969C27.7501 65.6104 27.7501 62.4566 27.7501 56.1527C27.7501 54.7709 27.7234 53.7348 27.701 52.8674Z" fill="#232222"/>
<path d="M66.2763 75.4202C63.9026 76.4503 60.8934 76.4503 54.875 76.4503H52.9375V52.5544H74.2353C74.25 53.4849 74.25 54.6008 74.25 56.1526C74.25 62.4577 74.25 65.6102 73.2668 68.0969C71.9558 71.4126 69.4413 74.0468 66.2763 75.4202Z" fill="#232222"/>
</svg>
