<svg width="153" height="32" viewBox="0 0 153 32" fill="none" xmlns="http://www.w3.org/2000/svg">
<path d="M31.989 27.3053L24.9691 17.6376C24.8039 17.4074 24.5561 17.1772 24.3083 17.0237L23.7302 16.6401C23.0695 16.1797 23.0695 15.3357 23.7302 14.8753L24.2258 14.5684C24.4735 14.415 24.7213 14.1848 24.8865 13.9546L32.0716 4.44036C32.6497 3.59635 32.7323 2.52216 32.0716 1.75488C31.2457 0.75742 29.7591 0.527239 28.6855 1.21779L18.2794 7.73966C18.0317 7.89312 17.7839 8.12329 17.6187 8.35348L17.2058 8.89058C16.7103 9.5044 15.8018 9.5044 15.3063 8.89058L14.9759 8.43021C14.8107 8.20002 14.563 7.96984 14.3152 7.81639L4.07433 1.14106C3.16586 0.603962 2.00963 0.527234 1.18375 1.14106C0.110111 1.90834 -0.13765 3.28944 0.605641 4.2869L7.62561 13.9546C7.79078 14.1848 8.03855 14.415 8.28631 14.5684L8.86442 14.9521C9.52513 15.4124 9.52513 16.2565 8.86442 16.7168L8.36889 17.0237C8.12113 17.1772 7.87338 17.4074 7.7082 17.6376L0.440467 27.2285C-0.220235 28.1493 -0.137645 29.3769 0.688233 30.1442C1.51411 30.9115 2.83551 31.0649 3.82656 30.4511L14.2326 23.9292C14.4804 23.7758 14.7282 23.5456 14.8933 23.3154L15.3063 22.7783C15.8018 22.1645 16.7103 22.1645 17.2058 22.7783L17.5361 23.2387C17.7013 23.4689 17.9491 23.6991 18.1969 23.8525L28.6029 30.6046C29.594 31.2184 30.9154 31.1417 31.7413 30.3744C32.5671 29.4536 32.6497 28.226 31.989 27.3053Z" fill="#E3B748"/>
<path d="M44.6108 8.63804H48.2739V23.9225H44.6108V8.63804Z" fill="white"/>
<path d="M59.9769 11.2847C58.2706 11.2847 57.0339 11.7332 56.2669 12.6301C55.5155 13.5123 55.1398 14.7253 55.1398 16.2692C55.1398 17.0191 55.2337 17.7028 55.4216 18.3204C55.6094 18.9232 55.8912 19.4452 56.2669 19.8863C56.6426 20.3274 57.1122 20.673 57.6758 20.9229C58.2393 21.1582 58.8968 21.2758 59.6482 21.2758C60.0552 21.2758 60.3995 21.2685 60.6813 21.2538C60.9787 21.2391 61.237 21.2097 61.4562 21.1655V15.8502H65.1192V23.4152C64.6809 23.5769 63.9765 23.746 63.0059 23.9225C62.0354 24.1136 60.8379 24.2092 59.4133 24.2092C58.1923 24.2092 57.0809 24.0328 56.0791 23.6799C55.0929 23.327 54.2475 22.8123 53.5431 22.136C52.8387 21.4596 52.2908 20.6289 51.8995 19.6437C51.5238 18.6586 51.3359 17.5337 51.3359 16.2692C51.3359 14.99 51.5472 13.8578 51.9699 12.8727C52.3926 11.8875 52.9718 11.0568 53.7075 10.3804C54.4432 9.68935 55.3042 9.16738 56.2904 8.81449C57.2922 8.4616 58.3567 8.28516 59.4838 8.28516C60.2508 8.28516 60.9396 8.33662 61.5501 8.43954C62.1763 8.52777 62.7085 8.63804 63.1468 8.77038C63.6008 8.88801 63.9686 9.01299 64.2504 9.14532C64.5478 9.27765 64.7592 9.38058 64.8844 9.4541L63.8278 12.211C63.3268 11.9611 62.7476 11.7479 62.0902 11.5714C61.4484 11.3803 60.7439 11.2847 59.9769 11.2847Z" fill="white"/>
<path d="M72.9653 21.2979C73.4819 21.2979 73.9046 21.2611 74.2333 21.1876C74.5777 21.0994 74.8516 20.9891 75.0551 20.8568C75.2586 20.7097 75.3995 20.5406 75.4778 20.3495C75.556 20.1583 75.5952 19.9451 75.5952 19.7099C75.5952 19.21 75.3447 18.7983 74.8438 18.4748C74.3429 18.1366 73.4819 17.7764 72.2609 17.3941C71.7287 17.2176 71.1964 17.0191 70.6642 16.7986C70.132 16.5633 69.6545 16.2766 69.2319 15.9384C68.8092 15.5855 68.4648 15.1665 68.1987 14.6812C67.9326 14.1813 67.7995 13.5785 67.7995 12.8727C67.7995 12.1669 67.9404 11.5347 68.2222 10.9759C68.5039 10.4025 68.9031 9.91726 69.4197 9.52026C69.9363 9.12326 70.5624 8.82184 71.2982 8.61599C72.0339 8.39543 72.8636 8.28516 73.7871 8.28516C74.8829 8.28516 75.83 8.39543 76.6283 8.61599C77.4267 8.83654 78.0842 9.07915 78.6007 9.34382L77.5441 12.0566C77.0901 11.8361 76.5814 11.6449 76.0178 11.4832C75.4699 11.3068 74.8047 11.2185 74.022 11.2185C73.1453 11.2185 72.5113 11.3362 72.12 11.5714C71.7443 11.792 71.5565 12.1375 71.5565 12.608C71.5565 12.8874 71.6269 13.1227 71.7678 13.3138C71.9087 13.5049 72.1043 13.6814 72.3548 13.8431C72.6209 13.9902 72.9184 14.1299 73.2471 14.2622C73.5915 14.3798 73.9672 14.5048 74.3742 14.6371C75.2195 14.9312 75.9552 15.2253 76.5814 15.5193C77.2075 15.7987 77.7241 16.1295 78.1311 16.5118C78.5538 16.8941 78.8668 17.3426 79.0704 17.8572C79.2739 18.3719 79.3756 18.9968 79.3756 19.7319C79.3756 21.1582 78.8434 22.2683 77.7789 23.0623C76.7144 23.8416 75.1099 24.2313 72.9653 24.2313C72.2452 24.2313 71.5956 24.1871 71.0164 24.0989C70.4372 24.0254 69.9206 23.9298 69.4667 23.8122C69.0283 23.6946 68.6448 23.5696 68.3161 23.4373C68.003 23.3049 67.7369 23.1799 67.5177 23.0623L68.5509 20.3274C69.0362 20.5774 69.631 20.8053 70.3355 21.0112C71.0555 21.2023 71.9322 21.2979 72.9653 21.2979Z" fill="white"/>
<path d="M93.8046 8.63804V11.5714H88.8971V23.9225H85.2341V11.5714H80.3266V8.63804H93.8046Z" fill="white"/>
<path d="M102.522 24.2313C101.379 24.2313 100.393 24.0842 99.5635 23.7901C98.7338 23.4814 98.0451 23.0623 97.4972 22.533C96.9649 21.9889 96.5658 21.3493 96.2996 20.6142C96.0492 19.8643 95.924 19.0409 95.924 18.1439V8.63804H99.587V17.8572C99.587 18.4748 99.6574 19.0041 99.7983 19.4452C99.9548 19.8716 100.158 20.2245 100.409 20.5039C100.675 20.7685 100.988 20.9597 101.348 21.0773C101.724 21.195 102.131 21.2538 102.569 21.2538C103.461 21.2538 104.181 20.9965 104.729 20.4818C105.293 19.9672 105.575 19.0923 105.575 17.8572V8.63804H109.238V18.1439C109.238 19.0409 109.105 19.8643 108.838 20.6142C108.572 21.364 108.165 22.011 107.617 22.555C107.07 23.0844 106.373 23.4961 105.528 23.7901C104.682 24.0842 103.68 24.2313 102.522 24.2313Z" fill="white"/>
<path d="M116.424 21.1214C116.596 21.1361 116.791 21.1508 117.011 21.1655C117.245 21.1655 117.519 21.1655 117.832 21.1655C119.664 21.1655 121.018 20.7318 121.895 19.8643C122.787 18.9968 123.233 17.7984 123.233 16.2692C123.233 14.6665 122.81 13.4535 121.965 12.6301C121.12 11.8067 119.781 11.395 117.95 11.395C117.699 11.395 117.441 11.4023 117.175 11.417C116.909 11.417 116.658 11.4317 116.424 11.4611V21.1214ZM127.013 16.2692C127.013 17.5926 126.794 18.7468 126.356 19.7319C125.918 20.7171 125.291 21.5331 124.477 22.1801C123.679 22.8271 122.701 23.3123 121.542 23.6358C120.384 23.9592 119.085 24.121 117.645 24.121C116.987 24.121 116.22 24.0916 115.343 24.0328C114.467 23.9886 113.606 23.8857 112.76 23.724V8.83654C113.606 8.68951 114.482 8.59393 115.39 8.54982C116.314 8.49101 117.104 8.4616 117.762 8.4616C119.155 8.4616 120.415 8.60864 121.542 8.90271C122.685 9.19678 123.663 9.65995 124.477 10.2922C125.291 10.9245 125.918 11.7332 126.356 12.7183C126.794 13.7034 127.013 14.8871 127.013 16.2692Z" fill="white"/>
<path d="M130.073 8.63804H133.736V23.9225H130.073V8.63804Z" fill="white"/>
<path d="M140.579 16.2692C140.579 17.0191 140.672 17.6955 140.86 18.2983C141.064 18.9012 141.346 19.4232 141.706 19.8643C142.081 20.2907 142.535 20.6215 143.068 20.8568C143.6 21.092 144.21 21.2097 144.899 21.2097C145.572 21.2097 146.175 21.092 146.707 20.8568C147.255 20.6215 147.709 20.2907 148.069 19.8643C148.445 19.4232 148.726 18.9012 148.914 18.2983C149.118 17.6955 149.22 17.0191 149.22 16.2692C149.22 15.5193 149.118 14.843 148.914 14.2401C148.726 13.6226 148.445 13.1006 148.069 12.6742C147.709 12.2331 147.255 11.8949 146.707 11.6596C146.175 11.4244 145.572 11.3068 144.899 11.3068C144.21 11.3068 143.6 11.4317 143.068 11.6817C142.535 11.917 142.081 12.2551 141.706 12.6962C141.346 13.1227 141.064 13.6446 140.86 14.2622C140.672 14.865 140.579 15.534 140.579 16.2692ZM153 16.2692C153 17.5779 152.789 18.7321 152.366 19.7319C151.959 20.7171 151.395 21.5478 150.675 22.2242C149.955 22.8859 149.094 23.3858 148.092 23.724C147.106 24.0622 146.042 24.2313 144.899 24.2313C143.788 24.2313 142.739 24.0622 141.753 23.724C140.766 23.3858 139.905 22.8859 139.17 22.2242C138.434 21.5478 137.855 20.7171 137.432 19.7319C137.009 18.7321 136.798 17.5779 136.798 16.2692C136.798 14.9606 137.017 13.8137 137.456 12.8286C137.894 11.8287 138.481 10.9906 139.217 10.3143C139.968 9.63789 140.829 9.13062 141.8 8.79243C142.786 8.45425 143.819 8.28516 144.899 8.28516C146.01 8.28516 147.059 8.45425 148.046 8.79243C149.032 9.13062 149.893 9.63789 150.628 10.3143C151.364 10.9906 151.943 11.8287 152.366 12.8286C152.789 13.8137 153 14.9606 153 16.2692Z" fill="white"/>
</svg>
