<svg width="22" height="23" viewBox="0 0 22 23" fill="none" xmlns="http://www.w3.org/2000/svg">
<path d="M2.13883 6.72984C1.83337 7.86649 1.83337 9.43457 1.83337 11.8545C1.83337 15.2917 1.83337 17.0104 2.70871 18.2152C2.99141 18.6043 3.33359 18.9465 3.72269 19.2292C4.92749 20.1045 6.64612 20.1045 10.0834 20.1045H11.9167C15.354 20.1045 17.0726 20.1045 18.2774 19.2292C18.6665 18.9465 19.0087 18.6043 19.2914 18.2152C20.1667 17.0104 20.1667 15.2917 20.1667 11.8545C20.1667 9.42651 20.1667 7.85605 19.8582 6.71849L17.9307 8.64603C16.4344 10.1423 15.2618 11.3149 14.2239 12.1068C13.1616 12.9173 12.1599 13.3935 10.9999 13.3935C9.83992 13.3935 8.83824 12.9173 7.77589 12.1068C6.73798 11.3149 5.56541 10.1423 4.06916 8.64601L2.27691 6.85376L2.13883 6.72984Z" fill="white"/>
<path d="M2.75004 5.43783L2.84982 5.52039L3.22292 5.85523L5.00424 7.63655C6.54576 9.17807 7.65403 10.2843 8.60994 11.0136C9.54998 11.7308 10.2614 12.0185 10.9999 12.0185C11.7384 12.0185 12.4498 11.7308 13.3899 11.0136C14.3458 10.2843 15.4541 9.17807 16.9956 7.63655L19.1112 5.52097L19.2263 5.40647C18.9436 5.01737 18.6665 4.76253 18.2774 4.47983C17.0726 3.60449 15.354 3.60449 11.9167 3.60449H10.0834C6.64612 3.60449 4.92749 3.60449 3.72269 4.47983C3.33359 4.76253 3.03274 5.04872 2.75004 5.43783Z" fill="white"/>
</svg>
