<svg width="30" height="31" viewBox="0 0 30 31" fill="none" xmlns="http://www.w3.org/2000/svg">
<path fill-rule="evenodd" clip-rule="evenodd" d="M14.9999 0.861328C6.71574 0.861328 0 7.57748 0 15.8622C0 22.2172 3.95373 27.6501 9.53358 29.8358C9.4025 28.6489 9.2841 26.8236 9.58571 25.5279C9.85819 24.3573 11.3445 18.0715 11.3445 18.0715C11.3445 18.0715 10.8958 17.1729 10.8958 15.8444C10.8958 13.7585 12.1048 12.2012 13.61 12.2012C14.8898 12.2012 15.5079 13.1622 15.5079 14.3144C15.5079 15.6014 14.6885 17.5257 14.2656 19.3089C13.9122 20.8021 15.0143 22.0197 16.4869 22.0197C19.1529 22.0197 21.2022 19.2085 21.2022 15.1503C21.2022 11.5587 18.6216 9.04742 14.9366 9.04742C10.6687 9.04742 8.16345 12.2488 8.16345 15.5575C8.16345 16.8467 8.66008 18.2293 9.27979 18.9807C9.40238 19.1293 9.42033 19.2595 9.38394 19.411C9.26995 19.8849 9.01691 20.9038 8.96723 21.1122C8.90182 21.3868 8.74984 21.445 8.46556 21.3129C6.59217 20.4407 5.42087 17.7016 5.42087 15.5014C5.42087 10.7694 8.85878 6.42382 15.3319 6.42382C20.5354 6.42382 24.5791 10.1319 24.5791 15.0875C24.5791 20.2575 21.3196 24.4182 16.7955 24.4182C15.2756 24.4182 13.8466 23.6285 13.3575 22.6957C13.3575 22.6957 12.6053 25.5598 12.423 26.2615C12.0843 27.5646 11.1702 29.1978 10.5587 30.1941C11.9621 30.6287 13.4536 30.8632 14.9999 30.8632C23.2843 30.8632 30 24.147 30 15.8622C30 7.57748 23.2843 0.861328 14.9999 0.861328" fill="#FDD65B"/>
</svg>
