<svg width="30" height="31" viewBox="0 0 30 31" fill="none" xmlns="http://www.w3.org/2000/svg">
<path fill-rule="evenodd" clip-rule="evenodd" d="M3.75 30.8613H26.25C28.32 30.8613 30 29.1813 30 27.1113V4.61133C30 2.54133 28.32 0.861328 26.25 0.861328H3.75C1.68 0.861328 0 2.54133 0 4.61133V27.1113C0 29.1813 1.68 30.8613 3.75 30.8613ZM22.4625 12.5388C22.4625 17.6163 18.5925 23.4813 11.52 23.4813C9.3525 23.4813 7.3275 22.8438 5.6325 21.7638C5.9325 21.8013 6.24 21.8163 6.5475 21.8163C8.3475 21.8163 10.005 21.2013 11.325 20.1663C9.645 20.1363 8.22 19.0263 7.7325 17.4963C7.965 17.5413 8.205 17.5638 8.4525 17.5638C8.805 17.5638 9.1425 17.5188 9.465 17.4288C7.71 17.0763 6.3825 15.5163 6.3825 13.6563V13.6038C6.9 13.8888 7.4925 14.0613 8.1225 14.0838C7.095 13.3938 6.4125 12.2163 6.4125 10.8813C6.4125 10.1763 6.6 9.51633 6.93 8.94633C8.8275 11.2713 11.6625 12.8088 14.8575 12.9663C14.7975 12.6813 14.76 12.3888 14.76 12.0888C14.76 9.96633 16.485 8.24133 18.6075 8.24133C19.71 8.24133 20.7075 8.70633 21.4125 9.45633C22.29 9.28383 23.115 8.96883 23.8575 8.52633C23.565 9.42633 22.9575 10.1838 22.1625 10.6563C22.9425 10.5588 23.685 10.3563 24.375 10.0488C23.8575 10.8213 23.205 11.5038 22.455 12.0438C22.4625 12.2088 22.4625 12.3738 22.4625 12.5388Z" fill="#FDD65B"/>
</svg>
