<svg width="30" height="31" viewBox="0 0 30 31" fill="none" xmlns="http://www.w3.org/2000/svg">
<path fill-rule="evenodd" clip-rule="evenodd" d="M8.81552 0.951595C10.4154 0.878595 10.9262 0.861328 15 0.861328C19.0738 0.861328 19.5846 0.878595 21.1845 0.951595C22.7811 1.02442 23.8715 1.27801 24.8256 1.64884C25.812 2.03211 26.6485 2.54501 27.4824 3.37891C28.3163 4.21286 28.8292 5.04938 29.2125 6.03576C29.5833 6.98987 29.8369 8.08027 29.9097 9.67685C29.9827 11.2768 30 11.7876 30 15.8614C30 19.9351 29.9827 20.4459 29.9097 22.0458C29.8369 23.6424 29.5833 24.7328 29.2125 25.6869C28.8292 26.6733 28.3163 27.5098 27.4824 28.3437C26.6485 29.1776 25.812 29.6905 24.8256 30.0739C23.8715 30.4447 22.7811 30.6982 21.1845 30.7711C19.5846 30.8441 19.0738 30.8613 15 30.8613C10.9262 30.8613 10.4154 30.8441 8.81552 30.7711C7.21894 30.6982 6.12854 30.4447 5.17443 30.0739C4.18805 29.6905 3.35153 29.1776 2.51758 28.3437C1.68369 27.5098 1.17079 26.6733 0.78751 25.6869C0.416679 24.7328 0.163087 23.6424 0.0902666 22.0458C0.0172674 20.4459 0 19.9351 0 15.8614C0 11.7876 0.0172674 11.2768 0.0902666 9.67685C0.163087 8.08027 0.416679 6.98987 0.78751 6.03576C1.17079 5.04938 1.68369 4.21286 2.51758 3.37891C3.35153 2.54501 4.18805 2.03211 5.17443 1.64884C6.12854 1.27801 7.21894 1.02442 8.81552 0.951595ZM23.8466 4.16797C23.318 3.96254 22.5238 3.71818 21.0613 3.65149C19.4796 3.57933 19.0052 3.56403 15 3.56403C10.9948 3.56403 10.5204 3.57933 8.93871 3.65149C7.47623 3.71818 6.68199 3.96254 6.15343 4.16797C5.45327 4.44008 4.95359 4.76512 4.42872 5.29005C3.90379 5.81491 3.57875 6.3146 3.30664 7.01476C3.10122 7.54332 2.85685 8.33756 2.79017 9.80004C2.718 11.3817 2.7027 11.8562 2.7027 15.8614C2.7027 19.8665 2.718 20.3409 2.79017 21.9226C2.85685 23.3851 3.10122 24.1793 3.30664 24.7079C3.57875 25.4081 3.90385 25.9077 4.42872 26.4326C4.95359 26.9575 5.45327 27.2826 6.15343 27.5547C6.68199 27.7601 7.47623 28.0045 8.93871 28.0712C10.5202 28.1433 10.9945 28.1586 15 28.1586C19.0055 28.1586 19.4798 28.1433 21.0613 28.0712C22.5238 28.0045 23.318 27.7601 23.8466 27.5547C24.5467 27.2826 25.0464 26.9575 25.5713 26.4326C26.0962 25.9077 26.4213 25.4081 26.6934 24.7079C26.8988 24.1793 27.1431 23.3851 27.2098 21.9226C27.282 20.3409 27.2973 19.8665 27.2973 15.8614C27.2973 11.8562 27.282 11.3817 27.2098 9.80004C27.1431 8.33756 26.8988 7.54332 26.6934 7.01476C26.4213 6.3146 26.0962 5.81491 25.5713 5.29005C25.0464 4.76512 24.5467 4.44008 23.8466 4.16797ZM15 8.15863C10.7459 8.15863 7.2973 11.6072 7.2973 15.8614C7.2973 20.1154 10.7459 23.564 15 23.564C19.2541 23.564 22.7027 20.1154 22.7027 15.8614C22.7027 11.6072 19.2541 8.15863 15 8.15863ZM10 15.8614C10 18.6228 12.2386 20.8613 15 20.8613C17.7614 20.8613 20 18.6228 20 15.8614C20 13.0999 17.7614 10.8613 15 10.8613C12.2386 10.8613 10 13.0999 10 15.8614ZM23.007 9.65428C24.0011 9.65428 24.8071 8.84843 24.8071 7.85431C24.8071 6.86019 24.0011 6.05428 23.007 6.05428C22.013 6.05428 21.207 6.86019 21.207 7.85431C21.207 8.84843 22.013 9.65428 23.007 9.65428Z" fill="#FDD65B"/>
</svg>
