<svg width="30" height="31" viewBox="0 0 30 31" fill="none" xmlns="http://www.w3.org/2000/svg">
<path fill-rule="evenodd" clip-rule="evenodd" d="M28.3448 0.861328H1.65517C0.741046 0.861328 0 1.60237 0 2.5165V29.2062C0 30.1203 0.741046 30.8613 1.65517 30.8613H16.0345V19.2596H12.1293V14.7182H16.0345V11.3768C16.0345 7.50271 18.4034 5.39236 21.8586 5.39236C23.023 5.38982 24.1866 5.44852 25.3448 5.56822V9.61822H22.9655C21.0828 9.61822 20.7155 10.5079 20.7155 11.8217V14.7131H25.2155L24.631 19.2544H20.6897V30.8613H28.3448C29.259 30.8613 30 30.1203 30 29.2062V2.5165C30 1.60237 29.259 0.861328 28.3448 0.861328Z" fill="#FDD65B"/>
</svg>
