<svg width="143" height="31" viewBox="0 0 143 31" fill="none" xmlns="http://www.w3.org/2000/svg">
<path d="M29.8982 26.9439L23.337 17.2762C23.1826 17.046 22.9511 16.8159 22.7195 16.6624L22.1792 16.2788C21.5617 15.8184 21.5617 14.9744 22.1792 14.514L22.6423 14.2071C22.8739 14.0537 23.1055 13.8235 23.2598 13.5933L29.9753 4.07903C30.5157 3.23502 30.5929 2.16083 29.9753 1.39355C29.2034 0.396092 27.814 0.165911 26.8106 0.856462L17.0847 7.37833C16.8531 7.53179 16.6215 7.76197 16.4671 7.99215L16.0812 8.52925C15.6181 9.14307 14.769 9.14307 14.3058 8.52925L13.9971 8.06888C13.8427 7.83869 13.6111 7.60851 13.3796 7.45506L3.80802 0.779729C2.95893 0.242634 1.87828 0.165906 1.10638 0.779729C0.102914 1.54701 -0.128653 2.92811 0.566055 3.92558L7.12718 13.5933C7.28156 13.8235 7.51313 14.0537 7.7447 14.2071L8.28503 14.5907C8.90255 15.0511 8.90255 15.8951 8.28503 16.3555L7.82188 16.6624C7.59031 16.8159 7.35875 17.046 7.20438 17.2762L0.411678 26.8672C-0.20584 27.7879 -0.128648 29.0156 0.643249 29.7829C1.41515 30.5501 2.65017 30.7036 3.57645 30.0898L13.3024 23.5679C13.5339 23.4145 13.7655 23.1843 13.9199 22.9541L14.3058 22.417C14.769 21.8032 15.6181 21.8032 16.0812 22.417L16.3899 22.8774C16.5443 23.1075 16.7759 23.3377 17.0075 23.4912L26.7334 30.2432C27.6596 30.8571 28.8947 30.7803 29.6666 30.0131C30.4385 29.0923 30.5157 27.8647 29.8982 26.9439Z" fill="#E3B748"/>
<path d="M41.6949 8.27672H45.1185V23.5611H41.6949V8.27672Z" fill="white"/>
<path d="M56.0566 10.9234C54.4619 10.9234 53.3061 11.3718 52.5891 12.2688C51.8869 13.151 51.5357 14.364 51.5357 15.9079C51.5357 16.6578 51.6235 17.3415 51.7991 17.9591C51.9747 18.5619 52.238 19.0839 52.5891 19.525C52.9403 19.9661 53.3792 20.3116 53.9059 20.5616C54.4326 20.7969 55.0471 20.9145 55.7494 20.9145C56.1298 20.9145 56.4517 20.9071 56.715 20.8924C56.993 20.8777 57.2344 20.8483 57.4392 20.8042V15.4888H60.8628V23.0539C60.4532 23.2156 59.7948 23.3847 58.8877 23.5611C57.9806 23.7523 56.8613 23.8479 55.5299 23.8479C54.3887 23.8479 53.3499 23.6714 52.4136 23.3185C51.4918 22.9657 50.7018 22.451 50.0434 21.7747C49.385 21.0983 48.8729 20.2675 48.5072 19.2824C48.156 18.2972 47.9805 17.1724 47.9805 15.9079C47.9805 14.6287 48.178 13.4965 48.573 12.5114C48.968 11.5262 49.5094 10.6955 50.197 10.0191C50.8847 9.32803 51.6894 8.80605 52.6111 8.45316C53.5475 8.10027 54.5424 7.92383 55.5958 7.92383C56.3127 7.92383 56.9564 7.97529 57.527 8.07822C58.1123 8.16644 58.6097 8.27672 59.0194 8.40905C59.4437 8.52668 59.7875 8.65166 60.0508 8.78399C60.3288 8.91632 60.5263 9.01925 60.6434 9.09277L59.6558 11.8497C59.1876 11.5997 58.6463 11.3865 58.0318 11.2101C57.4319 11.0189 56.7735 10.9234 56.0566 10.9234Z" fill="white"/>
<path d="M68.1961 20.9365C68.6789 20.9365 69.074 20.8998 69.3812 20.8263C69.7031 20.738 69.9591 20.6278 70.1493 20.4954C70.3395 20.3484 70.4712 20.1793 70.5443 19.9882C70.6175 19.797 70.6541 19.5838 70.6541 19.3486C70.6541 18.8486 70.42 18.4369 69.9518 18.1134C69.4836 17.7753 68.6789 17.415 67.5377 17.0327C67.0403 16.8563 66.5428 16.6578 66.0454 16.4372C65.5479 16.202 65.1017 15.9153 64.7067 15.5771C64.3116 15.2242 63.9898 14.8051 63.741 14.3199C63.4923 13.82 63.368 13.2171 63.368 12.5114C63.368 11.8056 63.4996 11.1733 63.763 10.6146C64.0263 10.0412 64.3994 9.55593 64.8822 9.15893C65.3651 8.76194 65.9503 8.46051 66.6379 8.25466C67.3256 8.03411 68.101 7.92383 68.9642 7.92383C69.9884 7.92383 70.8735 8.03411 71.6197 8.25466C72.3659 8.47522 72.9804 8.71783 73.4632 8.98249L72.4756 11.6953C72.0513 11.4748 71.5758 11.2836 71.0491 11.1219C70.537 10.9454 69.9152 10.8572 69.1837 10.8572C68.3644 10.8572 67.7718 10.9748 67.4061 11.2101C67.0549 11.4306 66.8793 11.7762 66.8793 12.2467C66.8793 12.5261 66.9452 12.7613 67.0769 12.9525C67.2085 13.1436 67.3914 13.3201 67.6255 13.4818C67.8742 13.6288 68.1522 13.7685 68.4595 13.9009C68.7813 14.0185 69.1325 14.1435 69.5129 14.2758C70.3029 14.5699 70.9906 14.8639 71.5758 15.158C72.161 15.4374 72.6439 15.7682 73.0243 16.1505C73.4193 16.5328 73.7119 16.9813 73.9021 17.4959C74.0923 18.0105 74.1874 18.6354 74.1874 19.3706C74.1874 20.7969 73.69 21.907 72.6951 22.701C71.7002 23.4803 70.2005 23.8699 68.1961 23.8699C67.5231 23.8699 66.9159 23.8258 66.3746 23.7376C65.8332 23.6641 65.3504 23.5685 64.9261 23.4509C64.5165 23.3332 64.158 23.2083 63.8508 23.0759C63.5582 22.9436 63.3094 22.8186 63.1046 22.701L64.0702 19.9661C64.5238 20.2161 65.0798 20.444 65.7381 20.6498C66.4112 20.841 67.2305 20.9365 68.1961 20.9365Z" fill="white"/>
<path d="M87.6733 8.27672V11.2101H83.0866V23.5611H79.663V11.2101H75.0762V8.27672H87.6733Z" fill="white"/>
<path d="M95.821 23.8699C94.7529 23.8699 93.8312 23.7229 93.0558 23.4288C92.2803 23.12 91.6366 22.701 91.1245 22.1717C90.6271 21.6276 90.254 20.988 90.0053 20.2528C89.7712 19.5029 89.6541 18.6795 89.6541 17.7826V8.27672H93.0777V17.4959C93.0777 18.1134 93.1436 18.6428 93.2752 19.0839C93.4215 19.5103 93.6117 19.8632 93.8458 20.1426C94.0946 20.4072 94.3872 20.5984 94.7237 20.716C95.0748 20.8336 95.4552 20.8924 95.8649 20.8924C96.6988 20.8924 97.3719 20.6351 97.8839 20.1205C98.4106 19.6059 98.674 18.731 98.674 17.4959V8.27672H102.098V17.7826C102.098 18.6795 101.973 19.5029 101.725 20.2528C101.476 21.0027 101.095 21.6497 100.583 22.1937C100.071 22.723 99.4202 23.1347 98.6301 23.4288C97.84 23.7229 96.9037 23.8699 95.821 23.8699Z" fill="white"/>
<path d="M108.814 20.7601C108.975 20.7748 109.158 20.7895 109.362 20.8042C109.582 20.8042 109.838 20.8042 110.131 20.8042C111.842 20.8042 113.108 20.3705 113.927 19.5029C114.761 18.6354 115.178 17.4371 115.178 15.9079C115.178 14.3052 114.783 13.0922 113.993 12.2688C113.203 11.4453 111.952 11.0336 110.24 11.0336C110.006 11.0336 109.765 11.041 109.516 11.0557C109.267 11.0557 109.033 11.0704 108.814 11.0998V20.7601ZM118.712 15.9079C118.712 17.2312 118.507 18.3855 118.097 19.3706C117.687 20.3558 117.102 21.1718 116.341 21.8188C115.595 22.4657 114.681 22.9509 113.598 23.2744C112.515 23.5979 111.301 23.7596 109.955 23.7596C109.341 23.7596 108.624 23.7302 107.804 23.6714C106.985 23.6273 106.18 23.5244 105.39 23.3626V8.47522C106.18 8.32818 107 8.23261 107.848 8.18849C108.711 8.12968 109.45 8.10027 110.065 8.10027C111.367 8.10027 112.545 8.24731 113.598 8.54138C114.666 8.83545 115.581 9.29862 116.341 9.93088C117.102 10.5631 117.687 11.3718 118.097 12.357C118.507 13.3421 118.712 14.5258 118.712 15.9079Z" fill="white"/>
<path d="M121.571 8.27672H124.995V23.5611H121.571V8.27672Z" fill="white"/>
<path d="M131.39 15.9079C131.39 16.6578 131.478 17.3342 131.653 17.937C131.844 18.5399 132.107 19.0618 132.443 19.5029C132.795 19.9293 133.219 20.2602 133.716 20.4954C134.214 20.7307 134.784 20.8483 135.428 20.8483C136.057 20.8483 136.621 20.7307 137.118 20.4954C137.63 20.2602 138.054 19.9293 138.391 19.5029C138.742 19.0618 139.005 18.5399 139.181 17.937C139.371 17.3342 139.466 16.6578 139.466 15.9079C139.466 15.158 139.371 14.4817 139.181 13.8788C139.005 13.2612 138.742 12.7393 138.391 12.3129C138.054 11.8718 137.63 11.5336 137.118 11.2983C136.621 11.0631 136.057 10.9454 135.428 10.9454C134.784 10.9454 134.214 11.0704 133.716 11.3204C133.219 11.5556 132.795 11.8938 132.443 12.3349C132.107 12.7613 131.844 13.2833 131.653 13.9009C131.478 14.5037 131.39 15.1727 131.39 15.9079ZM143 15.9079C143 17.2165 142.802 18.3708 142.407 19.3706C142.027 20.3558 141.5 21.1865 140.827 21.8629C140.154 22.5245 139.349 23.0245 138.413 23.3626C137.491 23.7008 136.496 23.8699 135.428 23.8699C134.389 23.8699 133.409 23.7008 132.487 23.3626C131.566 23.0245 130.761 22.5245 130.073 21.8629C129.386 21.1865 128.844 20.3558 128.449 19.3706C128.054 18.3708 127.857 17.2165 127.857 15.9079C127.857 14.5993 128.062 13.4524 128.471 12.4673C128.881 11.4674 129.43 10.6293 130.117 9.95293C130.819 9.27656 131.624 8.76929 132.531 8.4311C133.453 8.09292 134.419 7.92383 135.428 7.92383C136.467 7.92383 137.447 8.09292 138.369 8.4311C139.291 8.76929 140.095 9.27656 140.783 9.95293C141.471 10.6293 142.012 11.4674 142.407 12.4673C142.802 13.4524 143 14.5993 143 15.9079Z" fill="white"/>
</svg>
