<svg width="63" height="46" viewBox="0 0 63 46" fill="none" xmlns="http://www.w3.org/2000/svg">
<path opacity="0.03" d="M59 22.7086V9.78865C59 7.66045 59.0004 6.59648 58.5722 5.78362C58.1956 5.0686 57.5938 4.48724 56.8546 4.12292C56.0142 3.70874 54.9149 3.70874 52.7147 3.70874H45.6432C43.443 3.70874 42.3421 3.70874 41.5017 4.12291C40.7625 4.48723 40.162 5.0686 39.7853 5.78362C39.3571 6.59648 39.3571 7.66045 39.3571 9.78865V16.6286C39.3571 18.7568 39.3571 19.8211 39.7853 20.634C40.162 21.349 40.7625 21.9302 41.5017 22.2945C42.3421 22.7087 43.443 22.7087 45.6432 22.7087L59 22.7086ZM59 22.7086V30.3087C59 36.6048 53.7234 41.7087 47.2143 41.7087M23.6429 22.7086V9.78865C23.6429 7.66045 23.6433 6.59648 23.2151 5.78362C22.8384 5.0686 22.2366 4.48724 21.4974 4.12292C20.6571 3.70874 19.5577 3.70874 17.3575 3.70874H10.2861C8.08589 3.70874 6.98497 3.70874 6.1446 4.12291C5.40539 4.48723 4.80483 5.0686 4.42819 5.78362C4 6.59648 4 7.66045 4 9.78865V16.6286C4 18.7568 4 19.8211 4.42819 20.634C4.80483 21.349 5.40539 21.9302 6.1446 22.2945C6.98497 22.7087 8.0859 22.7087 10.2861 22.7087L23.6429 22.7086ZM23.6429 22.7086L23.6429 30.3087C23.6429 36.6048 18.3662 41.7087 11.8571 41.7087" stroke="white" stroke-width="7" stroke-linecap="round" stroke-linejoin="round"/>
</svg>
