<svg width="63" height="46" viewBox="0 0 63 46" fill="none" xmlns="http://www.w3.org/2000/svg">
<path opacity="0.03" d="M58.6667 22.7086V9.78865C58.6667 7.66045 58.6672 6.59648 58.239 5.78362C57.8623 5.0686 57.2605 4.48724 56.5213 4.12292C55.681 3.70874 54.5816 3.70874 52.3814 3.70874H45.31C43.1098 3.70874 42.0089 3.70874 41.1685 4.12291C40.4293 4.48723 39.8287 5.0686 39.4521 5.78362C39.0239 6.59648 39.0239 7.66045 39.0239 9.78865V16.6286C39.0239 18.7568 39.0239 19.8211 39.4521 20.634C39.8287 21.349 40.4293 21.9302 41.1685 22.2945C42.0089 22.7087 43.1098 22.7087 45.31 22.7087L58.6667 22.7086ZM58.6667 22.7086V30.3087C58.6667 36.6048 53.3901 41.7087 46.881 41.7087M23.3096 22.7086V9.78865C23.3096 7.66045 23.31 6.59648 22.8818 5.78362C22.5052 5.0686 21.9034 4.48724 21.1642 4.12292C20.3238 3.70874 19.2245 3.70874 17.0243 3.70874H9.95285C7.75264 3.70874 6.65172 3.70874 5.81135 4.12291C5.07214 4.48723 4.47158 5.0686 4.09494 5.78362C3.66675 6.59648 3.66675 7.66045 3.66675 9.78865V16.6286C3.66675 18.7568 3.66675 19.8211 4.09494 20.634C4.47158 21.349 5.07214 21.9302 5.81135 22.2945C6.65172 22.7087 7.75265 22.7087 9.95285 22.7087L23.3096 22.7086ZM23.3096 22.7086L23.3096 30.3087C23.3096 36.6048 18.033 41.7087 11.5239 41.7087" stroke="white" stroke-width="7" stroke-linecap="round" stroke-linejoin="round"/>
</svg>
