<svg width="63" height="46" viewBox="0 0 63 46" fill="none" xmlns="http://www.w3.org/2000/svg">
<path opacity="0.03" d="M59.333 22.7086V9.78865C59.333 7.66045 59.3334 6.59648 58.9052 5.78362C58.5286 5.0686 57.9268 4.48724 57.1876 4.12292C56.3472 3.70874 55.2479 3.70874 53.0477 3.70874H45.9762C43.776 3.70874 42.6751 3.70874 41.8348 4.12291C41.0955 4.48723 40.495 5.0686 40.1183 5.78362C39.6902 6.59648 39.6902 7.66045 39.6902 9.78865V16.6286C39.6902 18.7568 39.6902 19.8211 40.1183 20.634C40.495 21.349 41.0955 21.9302 41.8348 22.2945C42.6751 22.7087 43.776 22.7087 45.9762 22.7087L59.333 22.7086ZM59.333 22.7086V30.3087C59.333 36.6048 54.0564 41.7087 47.5473 41.7087M23.9759 22.7086V9.78865C23.9759 7.66045 23.9763 6.59648 23.5481 5.78362C23.1715 5.0686 22.5697 4.48724 21.8304 4.12292C20.9901 3.70874 19.8907 3.70874 17.6905 3.70874H10.6191C8.4189 3.70874 7.31798 3.70874 6.47761 4.12291C5.7384 4.48723 5.13784 5.0686 4.7612 5.78362C4.33301 6.59648 4.33301 7.66045 4.33301 9.78865V16.6286C4.33301 18.7568 4.33301 19.8211 4.7612 20.634C5.13784 21.349 5.7384 21.9302 6.47761 22.2945C7.31798 22.7087 8.41891 22.7087 10.6191 22.7087L23.9759 22.7086ZM23.9759 22.7086L23.9759 30.3087C23.9759 36.6048 18.6992 41.7087 12.1902 41.7087" stroke="white" stroke-width="7" stroke-linecap="round" stroke-linejoin="round"/>
</svg>
